<svg xmlns="http://www.w3.org/2000/svg" viewBox="0 0 776 518" width="776" height="518" role="img" aria-label="Veloma — Contabilidade e Consultoria Fiscal"><defs><linearGradient id="ouroMetal" x1="0%" y1="100%" x2="100%" y2="0%"><stop offset="0%" stop-color="#7A5208"/><stop offset="18%" stop-color="#C9891A"/><stop offset="42%" stop-color="#F3D994"/><stop offset="58%" stop-color="#E0B54C"/><stop offset="80%" stop-color="#A6700A"/><stop offset="100%" stop-color="#F7E7B8"/></linearGradient></defs><g transform="translate(310.153,60.000) scale(1.530339) translate(-7.520,3.500)"><path d="M 7.52 22.00 L 28.48 22.00 L 59.55 88.81 L 56.45 127.19 Z" fill="url(#ouroMetal)"/><path d="M 56.45 127.19 L 59.55 88.81 L 90.77 11.50 L 109.23 -3.50 Z" fill="url(#ouroMetal)"/></g><path d="M162.57 375.85 129.24 302.62H144.36L167.40 359.39ZM162.57 375.85 161.95 365.05 188.49 302.31H195.58L168.12 363.30Q167.92 363.71 167.20 365.31Q166.48 366.90 165.65 368.96Q164.83 371.02 164.21 372.92Q163.60 374.82 163.49 375.85ZM185.50 309.41Q186.74 306.32 185.20 304.67Q183.65 303.03 181.60 303.03H180.67V302.00H202.27V303.03Q202.27 303.03 201.81 303.03Q201.34 303.03 201.34 303.03Q199.08 303.03 196.51 304.52Q193.94 306.01 192.29 309.51ZM147.24 309.41 132.33 309.51Q130.68 306.01 128.16 304.52Q125.64 303.03 123.28 303.03Q123.28 303.03 122.86 303.03Q122.45 303.03 122.45 303.03V302.00H151.97V303.03H151.05Q149.09 303.03 147.60 304.67Q146.11 306.32 147.24 309.41Z M238.78 302.00V374.00H226.24V302.00ZM266.04 369.99 267.79 374.00H238.48V369.99ZM262.13 336.56V340.47H238.48V336.56ZM266.97 302.00V306.01H238.48V302.00ZM273.24 354.46 268.10 374.00H248.86L252.57 369.99Q257.81 369.99 261.62 368.09Q265.42 366.18 268.00 362.63Q270.57 359.09 272.21 354.46ZM262.13 340.26V349.11H261.10V347.98Q261.10 344.79 258.94 342.63Q256.78 340.47 253.60 340.47V340.26ZM262.13 327.92V336.77H253.60V336.56Q256.78 336.46 258.94 334.30Q261.10 332.14 261.10 328.95V327.92ZM266.97 305.70V316.40H265.94V314.96Q265.94 311.05 263.47 308.53Q261.00 306.01 256.89 305.91V305.70ZM266.97 300.15V303.13L254.42 302.00Q256.68 302.00 259.20 301.69Q261.72 301.38 263.88 300.97Q266.04 300.56 266.97 300.15ZM226.54 366.49V374.00H218.32V372.97Q218.32 372.97 218.98 372.97Q219.65 372.97 219.65 372.97Q222.33 372.97 224.23 371.07Q226.13 369.17 226.24 366.49ZM226.54 309.51H226.24Q226.13 306.83 224.23 304.93Q222.33 303.03 219.65 303.03Q219.65 303.03 218.98 303.03Q218.32 303.03 218.32 303.03V302.00H226.54Z M315.21 302.00V374.00H302.66V302.00ZM342.46 369.99 344.21 374.00H314.90V369.99ZM349.66 354.46 344.52 374.00H325.29L328.99 369.99Q334.24 369.99 338.04 368.09Q341.85 366.18 344.42 362.63Q346.99 359.09 348.64 354.46ZM302.97 366.49V374.00H294.74V372.97Q294.74 372.97 295.41 372.97Q296.08 372.97 296.08 372.97Q298.75 372.97 300.65 371.07Q302.56 369.17 302.66 366.49ZM302.97 309.51H302.66Q302.56 306.83 300.65 304.93Q298.75 303.03 296.08 303.03Q296.08 303.03 295.41 303.03Q294.74 303.03 294.74 303.03V302.00H302.97ZM314.90 309.51V302.00H323.13V303.03Q323.02 303.03 322.41 303.03Q321.79 303.03 321.79 303.03Q319.12 303.03 317.21 304.93Q315.31 306.83 315.21 309.51Z M409.73 300.56Q421.56 300.56 430.46 305.14Q439.36 309.71 444.19 318.15Q449.02 326.58 449.02 338.00Q449.02 349.42 444.19 357.85Q439.36 366.29 430.46 370.86Q421.56 375.44 409.73 375.44Q397.80 375.44 388.96 370.86Q380.11 366.29 375.28 357.85Q370.44 349.42 370.44 338.00Q370.44 326.58 375.28 318.15Q380.11 309.71 388.96 305.14Q397.80 300.56 409.73 300.56ZM409.73 371.53Q417.45 371.53 423.16 367.42Q428.86 363.30 432.00 355.79Q435.14 348.29 435.14 338.00Q435.14 327.71 432.00 320.21Q428.86 312.70 423.16 308.58Q417.45 304.47 409.73 304.47Q402.02 304.47 396.31 308.58Q390.60 312.70 387.46 320.21Q384.33 327.71 384.33 338.00Q384.33 348.29 387.46 355.79Q390.60 363.30 396.31 367.42Q402.02 371.53 409.73 371.53Z M545.92 300.56 546.74 310.33 517.73 364.74Q517.73 364.74 516.81 366.54Q515.88 368.34 514.96 370.91Q514.03 373.49 513.93 375.85H512.90L509.71 367.73ZM478.34 366.49V374.00H466.92V372.97Q467.02 372.97 467.80 372.97Q468.57 372.97 468.57 372.97Q471.34 372.97 473.50 371.27Q475.66 369.58 476.08 366.49ZM482.35 368.14Q482.35 368.24 482.35 368.34Q482.35 368.45 482.35 368.65Q482.35 370.30 483.53 371.69Q484.72 373.07 486.36 373.07H487.90V374.00H481.63V368.14ZM484.30 300.56H485.33L488.42 309.51L481.73 374.00H475.15ZM485.33 300.56 517.63 358.78 512.90 375.85 482.86 320.62ZM546.84 300.56 556.30 374.00H542.62L537.28 321.75L545.92 300.56ZM553.12 366.49H555.38Q555.89 369.58 558.00 371.27Q560.11 372.97 562.89 372.97Q562.89 372.97 563.66 372.97Q564.43 372.97 564.53 372.97V374.00H553.12ZM542.01 368.14H542.73V374.00H536.45V373.07H538.00Q539.74 373.07 540.88 371.69Q542.01 370.30 542.01 368.65Q542.01 368.45 542.01 368.34Q542.01 368.24 542.01 368.14Z M614.32 300.15 646.82 373.38H631.60L609.48 316.61ZM592.20 366.49Q591.38 368.55 591.89 369.99Q592.41 371.43 593.64 372.20Q594.88 372.97 596.11 372.97H597.04V374.00H575.44V372.97Q575.44 372.97 575.90 372.97Q576.36 372.97 576.36 372.97Q578.73 372.97 581.25 371.48Q583.77 369.99 585.41 366.49ZM614.32 300.15 614.83 310.95 589.22 373.69H582.22L608.76 312.70Q608.97 312.29 609.64 310.69Q610.30 309.10 611.18 307.04Q612.05 304.98 612.67 303.08Q613.29 301.18 613.39 300.15ZM626.35 348.29V352.19H595.39V348.29ZM628.92 366.49H643.73Q645.38 369.99 647.90 371.48Q650.42 372.97 652.78 372.97Q652.78 372.97 653.20 372.97Q653.61 372.97 653.61 372.97V374.00H624.09V372.97H625.01Q626.97 372.97 628.51 371.27Q630.05 369.58 628.92 366.49Z" fill="url(#ouroMetal)"/><rect x="66.56" y="411.00" width="642.84" height="1.90" fill="url(#ouroMetal)"/><path d="M62.75 450.30Q62.75 448.57 63.52 447.27Q64.29 445.97 65.54 445.23Q66.79 444.49 68.25 444.49Q69.30 444.49 70.18 444.76Q71.06 445.04 71.78 445.53Q72.50 446.03 73.00 446.68V444.32Q72.07 443.49 70.97 443.09Q69.87 442.69 68.25 442.69Q66.70 442.69 65.36 443.25Q64.02 443.81 63.00 444.83Q61.99 445.86 61.42 447.26Q60.85 448.65 60.85 450.30Q60.85 451.95 61.42 453.34Q61.99 454.74 63.00 455.77Q64.02 456.79 65.36 457.35Q66.70 457.91 68.25 457.91Q69.87 457.91 70.97 457.51Q72.07 457.11 73.00 456.28V453.92Q72.50 454.57 71.78 455.07Q71.06 455.56 70.18 455.84Q69.30 456.11 68.25 456.11Q66.79 456.11 65.54 455.37Q64.29 454.63 63.52 453.32Q62.75 452.01 62.75 450.30Z M83.15 450.30Q83.15 448.63 83.88 447.32Q84.61 446.01 85.88 445.25Q87.15 444.49 88.75 444.49Q90.38 444.49 91.64 445.25Q92.90 446.01 93.63 447.32Q94.36 448.63 94.36 450.30Q94.36 451.97 93.63 453.28Q92.90 454.59 91.64 455.35Q90.38 456.11 88.75 456.11Q87.15 456.11 85.88 455.35Q84.61 454.59 83.88 453.28Q83.15 451.97 83.15 450.30ZM81.25 450.30Q81.25 451.91 81.81 453.30Q82.37 454.70 83.38 455.72Q84.40 456.75 85.77 457.33Q87.15 457.91 88.75 457.91Q90.38 457.91 91.75 457.33Q93.11 456.75 94.12 455.72Q95.14 454.70 95.70 453.30Q96.26 451.91 96.26 450.30Q96.26 448.67 95.70 447.29Q95.14 445.90 94.12 444.88Q93.11 443.85 91.75 443.27Q90.38 442.69 88.75 442.69Q87.15 442.69 85.77 443.27Q84.40 443.85 83.38 444.88Q82.37 445.90 81.81 447.29Q81.25 448.67 81.25 450.30Z M115.92 442.90V453.92L104.72 442.16V457.70H106.51V446.68L117.72 458.44V442.90Z M125.54 444.59H129.35V457.70H131.15V444.59H134.95V442.90H125.54Z M144.19 453.26H152.01L151.38 451.57H144.83ZM148.06 446.24 150.60 452.20 150.77 452.63 152.92 457.70H154.93L148.06 442.16L141.19 457.70H143.20L145.40 452.50L145.57 452.12Z M164.07 449.88H166.45Q167.79 449.88 168.77 449.50Q169.75 449.12 170.30 448.38Q170.85 447.64 170.85 446.60Q170.85 445.33 170.30 444.52Q169.75 443.70 168.77 443.30Q167.79 442.90 166.45 442.90H162.65V457.70H166.67Q168.10 457.70 169.23 457.22Q170.37 456.75 171.03 455.79Q171.70 454.82 171.70 453.37Q171.70 452.35 171.32 451.61Q170.94 450.87 170.25 450.40Q169.56 449.92 168.65 449.69Q167.74 449.45 166.67 449.45H164.07V450.45H166.67Q167.38 450.45 167.98 450.63Q168.57 450.81 169.00 451.17Q169.44 451.53 169.67 452.05Q169.90 452.58 169.90 453.26Q169.90 454.17 169.49 454.80Q169.08 455.44 168.35 455.78Q167.62 456.11 166.67 456.11H164.45V444.49H166.45Q167.57 444.49 168.31 445.07Q169.05 445.65 169.05 446.71Q169.05 447.40 168.72 447.89Q168.38 448.38 167.79 448.63Q167.19 448.88 166.45 448.88H164.07Z M180.37 442.90V457.70H182.16V442.90Z M191.47 442.90V457.70H199.08V456.01H193.26V442.90Z M206.90 442.90V457.70H208.70V442.90Z M218.00 442.90V457.70H219.80V442.90ZM222.44 457.70Q224.60 457.70 226.27 456.77Q227.94 455.84 228.89 454.18Q229.84 452.52 229.84 450.30Q229.84 448.08 228.89 446.42Q227.94 444.76 226.27 443.83Q224.60 442.90 222.44 442.90H218.99V444.70H222.44Q223.69 444.70 224.72 445.09Q225.76 445.48 226.50 446.21Q227.24 446.94 227.64 447.97Q228.04 449.01 228.04 450.30Q228.04 451.59 227.64 452.63Q227.24 453.66 226.50 454.39Q225.76 455.12 224.72 455.51Q223.69 455.90 222.44 455.90H218.99V457.70Z M239.71 453.26H247.54L246.90 451.57H240.35ZM243.58 446.24 246.12 452.20 246.29 452.63 248.45 457.70H250.45L243.58 442.16L236.71 457.70H238.72L240.92 452.50L241.09 452.12Z M258.17 442.90V457.70H259.97V442.90ZM262.61 457.70Q264.77 457.70 266.44 456.77Q268.11 455.84 269.06 454.18Q270.01 452.52 270.01 450.30Q270.01 448.08 269.06 446.42Q268.11 444.76 266.44 443.83Q264.77 442.90 262.61 442.90H259.17V444.70H262.61Q263.86 444.70 264.90 445.09Q265.93 445.48 266.67 446.21Q267.41 446.94 267.81 447.97Q268.21 449.01 268.21 450.30Q268.21 451.59 267.81 452.63Q267.41 453.66 266.67 454.39Q265.93 455.12 264.90 455.51Q263.86 455.90 262.61 455.90H259.17V457.70Z M279.46 457.70H286.93V456.01H279.46ZM279.46 444.59H286.93V442.90H279.46ZM279.46 450.51H286.50V448.82H279.46ZM278.47 442.90V457.70H280.27V442.90Z M309.27 457.70H316.74V456.01H309.27ZM309.27 444.59H316.74V442.90H309.27ZM309.27 450.51H316.31V448.82H309.27ZM308.28 442.90V457.70H310.08V442.90Z M339.15 450.30Q339.15 448.57 339.92 447.27Q340.69 445.97 341.94 445.23Q343.19 444.49 344.65 444.49Q345.70 444.49 346.58 444.76Q347.46 445.04 348.18 445.53Q348.90 446.03 349.40 446.68V444.32Q348.47 443.49 347.37 443.09Q346.27 442.69 344.65 442.69Q343.10 442.69 341.76 443.25Q340.42 443.81 339.40 444.83Q338.39 445.86 337.82 447.26Q337.25 448.65 337.25 450.30Q337.25 451.95 337.82 453.34Q338.39 454.74 339.40 455.77Q340.42 456.79 341.76 457.35Q343.10 457.91 344.65 457.91Q346.27 457.91 347.37 457.51Q348.47 457.11 349.40 456.28V453.92Q348.90 454.57 348.18 455.07Q347.46 455.56 346.58 455.84Q345.70 456.11 344.65 456.11Q343.19 456.11 341.94 455.37Q340.69 454.63 339.92 453.32Q339.15 452.01 339.15 450.30Z M359.55 450.30Q359.55 448.63 360.28 447.32Q361.01 446.01 362.28 445.25Q363.55 444.49 365.15 444.49Q366.78 444.49 368.04 445.25Q369.30 446.01 370.03 447.32Q370.76 448.63 370.76 450.30Q370.76 451.97 370.03 453.28Q369.30 454.59 368.04 455.35Q366.78 456.11 365.15 456.11Q363.55 456.11 362.28 455.35Q361.01 454.59 360.28 453.28Q359.55 451.97 359.55 450.30ZM357.65 450.30Q357.65 451.91 358.21 453.30Q358.77 454.70 359.78 455.72Q360.80 456.75 362.17 457.33Q363.55 457.91 365.15 457.91Q366.78 457.91 368.15 457.33Q369.51 456.75 370.53 455.72Q371.54 454.70 372.10 453.30Q372.66 451.91 372.66 450.30Q372.66 448.67 372.10 447.29Q371.54 445.90 370.53 444.88Q369.51 443.85 368.15 443.27Q366.78 442.69 365.15 442.69Q363.55 442.69 362.17 443.27Q360.80 443.85 359.78 444.88Q358.77 445.90 358.21 447.29Q357.65 448.67 357.65 450.30Z M392.32 442.90V453.92L381.12 442.16V457.70H382.91V446.68L394.12 458.44V442.90Z M403.97 453.22 402.54 454.19Q403.02 455.16 403.79 456.02Q404.57 456.88 405.59 457.39Q406.62 457.91 407.82 457.91Q408.71 457.91 409.52 457.62Q410.34 457.32 410.98 456.77Q411.63 456.22 412.00 455.44Q412.37 454.66 412.37 453.68Q412.37 452.67 412.01 451.94Q411.65 451.21 411.09 450.69Q410.53 450.17 409.87 449.83Q409.22 449.50 408.62 449.29Q407.33 448.84 406.58 448.39Q405.83 447.93 405.52 447.41Q405.20 446.90 405.20 446.28Q405.20 445.56 405.75 444.98Q406.30 444.40 407.50 444.40Q408.37 444.40 408.97 444.74Q409.58 445.08 410.00 445.61Q410.42 446.13 410.70 446.68L412.24 445.80Q411.88 445.01 411.25 444.31Q410.61 443.60 409.71 443.14Q408.81 442.69 407.61 442.69Q406.36 442.69 405.39 443.19Q404.42 443.68 403.87 444.55Q403.32 445.42 403.32 446.52Q403.32 447.53 403.71 448.23Q404.10 448.93 404.71 449.40Q405.33 449.88 406.00 450.18Q406.68 450.49 407.23 450.68Q408.07 450.98 408.83 451.35Q409.58 451.72 410.04 452.31Q410.51 452.90 410.51 453.89Q410.51 454.91 409.79 455.56Q409.07 456.22 407.88 456.22Q407.00 456.22 406.30 455.84Q405.60 455.46 405.04 454.78Q404.48 454.11 403.97 453.22Z M420.82 442.90V452.84Q420.82 453.94 421.17 454.87Q421.52 455.80 422.19 456.47Q422.85 457.15 423.78 457.53Q424.71 457.91 425.86 457.91Q427.00 457.91 427.93 457.53Q428.86 457.15 429.52 456.47Q430.19 455.80 430.54 454.87Q430.89 453.94 430.89 452.84V442.90H429.09V452.84Q429.09 454.36 428.27 455.29Q427.44 456.22 425.86 456.22Q424.27 456.22 423.45 455.29Q422.62 454.36 422.62 452.84V442.90Z M440.09 442.90V457.70H447.70V456.01H441.88V442.90Z M454.04 444.59H457.85V457.70H459.64V444.59H463.45V442.90H454.04Z M472.33 450.30Q472.33 448.63 473.06 447.32Q473.79 446.01 475.06 445.25Q476.32 444.49 477.93 444.49Q479.56 444.49 480.82 445.25Q482.07 446.01 482.80 447.32Q483.53 448.63 483.53 450.30Q483.53 451.97 482.80 453.28Q482.07 454.59 480.82 455.35Q479.56 456.11 477.93 456.11Q476.32 456.11 475.06 455.35Q473.79 454.59 473.06 453.28Q472.33 451.97 472.33 450.30ZM470.43 450.30Q470.43 451.91 470.99 453.30Q471.55 454.70 472.56 455.72Q473.58 456.75 474.95 457.33Q476.32 457.91 477.93 457.91Q479.56 457.91 480.92 457.33Q482.29 456.75 483.30 455.72Q484.32 454.70 484.88 453.30Q485.44 451.91 485.44 450.30Q485.44 448.67 484.88 447.29Q484.32 445.90 483.30 444.88Q482.29 443.85 480.92 443.27Q479.56 442.69 477.93 442.69Q476.32 442.69 474.95 443.27Q473.58 443.85 472.56 444.88Q471.55 445.90 470.99 447.29Q470.43 448.67 470.43 450.30Z M496.54 450.41 501.61 457.70H503.83L498.55 450.41ZM493.89 442.90V457.70H495.69V442.90ZM494.89 444.49H497.91Q498.86 444.49 499.59 444.82Q500.32 445.16 500.73 445.80Q501.15 446.43 501.15 447.34Q501.15 448.25 500.73 448.88Q500.32 449.52 499.59 449.86Q498.86 450.19 497.91 450.19H494.89V451.78H497.91Q499.35 451.78 500.48 451.24Q501.61 450.70 502.28 449.70Q502.94 448.69 502.94 447.34Q502.94 445.97 502.28 444.97Q501.61 443.98 500.48 443.44Q499.35 442.90 497.91 442.90H494.89Z M511.65 442.90V457.70H513.45V442.90Z M524.17 453.26H531.99L531.36 451.57H524.80ZM528.04 446.24 530.58 452.20 530.75 452.63 532.90 457.70H534.91L528.04 442.16L521.17 457.70H523.18L525.38 452.50L525.54 452.12Z M555.88 444.59H562.50V442.90H555.88ZM555.88 450.51H562.29V448.82H555.88ZM554.89 442.90V457.70H556.69V442.90Z M571.38 442.90V457.70H573.18V442.90Z M583.03 453.22 581.59 454.19Q582.08 455.16 582.85 456.02Q583.62 456.88 584.65 457.39Q585.67 457.91 586.88 457.91Q587.77 457.91 588.58 457.62Q589.40 457.32 590.04 456.77Q590.69 456.22 591.06 455.44Q591.43 454.66 591.43 453.68Q591.43 452.67 591.07 451.94Q590.71 451.21 590.15 450.69Q589.59 450.17 588.93 449.83Q588.28 449.50 587.68 449.29Q586.39 448.84 585.64 448.39Q584.89 447.93 584.58 447.41Q584.26 446.90 584.26 446.28Q584.26 445.56 584.81 444.98Q585.36 444.40 586.56 444.40Q587.43 444.40 588.03 444.74Q588.63 445.08 589.06 445.61Q589.48 446.13 589.76 446.68L591.30 445.80Q590.94 445.01 590.31 444.31Q589.67 443.60 588.77 443.14Q587.87 442.69 586.67 442.69Q585.42 442.69 584.45 443.19Q583.48 443.68 582.93 444.55Q582.38 445.42 582.38 446.52Q582.38 447.53 582.77 448.23Q583.16 448.93 583.77 449.40Q584.39 449.88 585.06 450.18Q585.74 450.49 586.29 450.68Q587.13 450.98 587.88 451.35Q588.63 451.72 589.10 452.31Q589.57 452.90 589.57 453.89Q589.57 454.91 588.85 455.56Q588.13 456.22 586.94 456.22Q586.06 456.22 585.36 455.84Q584.66 455.46 584.10 454.78Q583.54 454.11 583.03 453.22Z M601.05 450.30Q601.05 448.57 601.82 447.27Q602.59 445.97 603.84 445.23Q605.08 444.49 606.54 444.49Q607.60 444.49 608.48 444.76Q609.35 445.04 610.07 445.53Q610.79 446.03 611.30 446.68V444.32Q610.37 443.49 609.27 443.09Q608.17 442.69 606.54 442.69Q605.00 442.69 603.66 443.25Q602.31 443.81 601.30 444.83Q600.28 445.86 599.71 447.26Q599.14 448.65 599.14 450.30Q599.14 451.95 599.71 453.34Q600.28 454.74 601.30 455.77Q602.31 456.79 603.66 457.35Q605.00 457.91 606.54 457.91Q608.17 457.91 609.27 457.51Q610.37 457.11 611.30 456.28V453.92Q610.79 454.57 610.07 455.07Q609.35 455.56 608.48 455.84Q607.60 456.11 606.54 456.11Q605.08 456.11 603.84 455.37Q602.59 454.63 601.82 453.32Q601.05 452.01 601.05 450.30Z M621.81 453.26H629.63L629.00 451.57H622.44ZM625.68 446.24 628.21 452.20 628.38 452.63 630.54 457.70H632.55L625.68 442.16L618.81 457.70H620.81L623.01 452.50L623.18 452.12Z M640.27 442.90V457.70H647.88V456.01H642.06V442.90Z M667.96 442.90V457.70H675.57V456.01H669.76V442.90Z M683.40 442.90V457.70H685.19V442.90ZM687.84 457.70Q689.99 457.70 691.66 456.77Q693.33 455.84 694.29 454.18Q695.24 452.52 695.24 450.30Q695.24 448.08 694.29 446.42Q693.33 444.76 691.66 443.83Q689.99 442.90 687.84 442.90H684.39V444.70H687.84Q689.08 444.70 690.12 445.09Q691.16 445.48 691.90 446.21Q692.64 446.94 693.04 447.97Q693.44 449.01 693.44 450.30Q693.44 451.59 693.04 452.63Q692.64 453.66 691.90 454.39Q691.16 455.12 690.12 455.51Q689.08 455.90 687.84 455.90H684.39V457.70Z M705.11 453.26H712.93L712.30 451.57H705.75ZM708.98 446.24 711.52 452.20 711.69 452.63 713.84 457.70H715.85L708.98 442.16L702.11 457.70H704.12L706.32 452.50L706.49 452.12Z" fill="#4A4270"/></svg>